<svg xmlns="http://www.w3.org/2000/svg" viewBox="0 0 294.46 45.56"><defs><style>.cls-1,.cls-26{fill:#737373;}.cls-2{fill:#0e0e0e;}.cls-3{fill:#101010;}.cls-4{fill:#717171;}.cls-5{fill:#040404;}.cls-6{fill:#484848;}.cls-7{fill:#161616;}.cls-8{fill:#171717;}.cls-9{fill:#f9f9f9;}.cls-10{fill:#848484;}.cls-11{fill:#6d6d6d;}.cls-12{fill:#686868;}.cls-13{fill:#2b2b2b;}.cls-14{fill:#010101;}.cls-15{fill:#303030;}.cls-16{fill:#030303;}.cls-17{fill:#545454;}.cls-18{fill:#5a5a5a;}.cls-19{fill:#9e9e9e;}.cls-20{fill:#6a6a6a;}.cls-21{fill:#777;}.cls-22{fill:#7a7a7a;}.cls-23{fill:#1f1f1f;}.cls-24{fill:#2e2e2e;}.cls-25{fill:#8a8a8a;}.cls-26{font-size:16.63px;font-family:MyriadPro-Regular, Myriad Pro;}.cls-27{letter-spacing:0.01em;}.cls-28{letter-spacing:0.01em;}</style></defs><title>mail</title><g id="Layer_2" data-name="Layer 2"><g id="Layer_1-2" data-name="Layer 1"><path class="cls-1" d="M208,36.77a14.2,14.2,0,1,1,14.11-13.93A14.3,14.3,0,0,1,208,36.77Z"/><path class="cls-2" d="M259.26,41c-15.83-9.45-11.63-33.29,2.54-38.37,2.85-.6,3.43.86,3,3.27a12.55,12.55,0,0,0-1.33,4.36c-.57,2.67-1.19,5.34-1.66,8a7,7,0,0,1-.75,1.62c-1.48,1.93-.9,3.76.3,5.56a11.28,11.28,0,0,1,.82,1.72A12.38,12.38,0,0,1,263,34c-.72,2.29-.57,4.82-1.95,6.93A1.21,1.21,0,0,1,259.26,41Z"/><path class="cls-3" d="M281.94,3.83c10.79,5.3,14.59,13.4,11.47,24.5a2.4,2.4,0,0,1-2.63.5c-1.28-2.11-2.56-4.22-3.89-6.3a6.27,6.27,0,0,1-.14-1.93,8.64,8.64,0,0,0-2.86-9.26C282.21,9.86,280.3,8.4,280,5.88A2.63,2.63,0,0,1,281.94,3.83Z"/><path class="cls-4" d="M280.43,42.59c-4.89,4.54-10.32,2.91-15.75,1.38.72-1.62-1-3.33.18-4.95a6.62,6.62,0,0,1,5.3-1.79c3.12,1.15,5.58-.53,8.11-1.91C284,36.25,282,39.48,280.43,42.59Z"/><path class="cls-5" d="M281.94,3.83,280.42,5.5a19,19,0,0,1-7.53,1.63A11.18,11.18,0,0,1,266.2,5c-.77-1.07-2-2-1.4-3.6C271-.89,276.74-.53,281.94,3.83Z"/><path class="cls-3" d="M290.36,28.26l3.05.07c-.22,4.37-3.74,6.73-6,9.85-2.05.62-2.9-1.09-4.12-2.12A5.76,5.76,0,0,1,282,31.34a5,5,0,0,1,2-3.25C286.17,27.22,288.25,28.36,290.36,28.26Z"/><path class="cls-1" d="M146.77,13.94c.22,2.53-1.11,3-3.06,2.93-1.79,0-2.47-.85-2.53-2.59-.07-2,.55-3.09,2.77-3.06C146,11.25,147.14,11.94,146.77,13.94Z"/><path class="cls-6" d="M280.43,42.59c-1.44-1.67,2.83-6.15-2.82-5.77a1.34,1.34,0,0,1-1.79-.64c0-.36-.07-.71-.11-1.07,1-3.07,2.82-5,6.39-4.08.16,2.8,1.34,5.35,2.08,8a3.6,3.6,0,0,1-2.28,3.26Z"/><path class="cls-1" d="M135.41,16.83c-2.22.2-2.78-1-2.77-3,0-2.37,1.4-2.61,3.25-2.59s2.34,1.06,2.41,2.7C138.39,16,137.58,17.05,135.41,16.83Z"/><path class="cls-1" d="M152.75,28.31c2.39-.16,2.6,1.37,2.59,3.21,0,2.5-1.71,2.4-3.41,2.38-1.93,0-2.17-1.29-2.23-2.85C149.63,28.84,150.73,28.09,152.75,28.31Z"/><path class="cls-1" d="M138.26,30.93c.22,2.09-.65,3-2.81,3s-2.88-1-2.8-3c.06-1.71.69-2.58,2.5-2.62S138.46,28.61,138.26,30.93Z"/><path class="cls-1" d="M135.7,19.79c2.39-.17,2.59,1.36,2.59,3.2,0,2.51-1.71,2.4-3.41,2.38-1.93,0-2.17-1.29-2.23-2.85C132.57,20.31,133.68,19.57,135.7,19.79Z"/><path class="cls-1" d="M146.78,30.9c.22,2.05-.59,3-2.77,3s-2.92-1-2.84-3c.07-1.68.59-2.64,2.46-2.66S147,28.53,146.78,30.9Z"/><path class="cls-1" d="M141.21,22.3c-.15-2.46,1.48-2.56,3.26-2.53,2.51,0,2.35,1.78,2.31,3.46,0,2-1.38,2.1-2.9,2.16C141.6,25.48,141,24.25,141.21,22.3Z"/><path class="cls-1" d="M155.3,14.07c.16,2.7-1.46,2.8-3.25,2.78-2.5,0-2.34-1.79-2.31-3.46,0-2,1.38-2.12,2.91-2.16C154.87,11.17,155.61,12.29,155.3,14.07Z"/><path class="cls-1" d="M149.74,22.3c-.15-2.46,1.47-2.56,3.26-2.53,2.5,0,2.34,1.78,2.31,3.46,0,2-1.39,2.1-2.91,2.16C150.13,25.48,149.53,24.25,149.74,22.3Z"/><path class="cls-7" d="M264.65,39.68c.53,1.43,4.15,2.83,0,4.29a11,11,0,0,1-5.42-3l1.42-.29c.89-.76.3-2.27,1.47-2.9A2.26,2.26,0,0,1,264.65,39.68Z"/><path class="cls-7" d="M281.9,42.3c.46-.9.92-1.8,1.39-2.7.92-1.26-.3-3.23,1.39-4.23l2.73,2.81C286.52,40.82,284.4,41.82,281.9,42.3Z"/><path class="cls-8" d="M264.8,1.35,266.19,4c1,.88,2.41,2,.81,3.14s-3.39,1.15-3.68-1.57c1.68-2.12-.55-2.21-1.52-2.95A2.82,2.82,0,0,1,264.8,1.35Z"/><path class="cls-9" d="M207.63,27.71c-.66-2-5,1.22-4.26-3.15.57-3.41,0-8.22,4.45-8.25,5,0,4.29,5.12,4.7,8.68C212.67,26.31,209.91,27.78,207.63,27.71Z"/><path class="cls-10" d="M264.65,39.68,262,38c-1.19-1.26-.88-2.63-.28-4-.33-2.38-.65-4.75-1-7.12,2.13-1.74,3.79-.45,5.45.82.8.85.32,3.19,2.62,2.31.66-.26,1.39-.84,1.36-1.5-.11-2.64-3.17-1.29-4.13-2.88-.64-1.48.05-2.63.92-3.73a13.76,13.76,0,0,1,8.66-2.62c4.44,5.23,2.51,10.63.44,16h0c-1.48,1.77-2.88,3.71-5.67,2.86Z"/><path class="cls-11" d="M266.18,28.23l-5.41-1.33-.51-1.53a6.68,6.68,0,0,1,.18-5.68l.58.06c.4-2.08,1.74-2.52,3.59-2.05A11,11,0,0,1,268.05,21a1.41,1.41,0,0,1-.42,1.65c-.43,1-.86,2-1.28,2.94A1.9,1.9,0,0,1,266.18,28.23Z"/><path class="cls-12" d="M264.77,18.31,261,19.75c-1.46-3.47.16-6.64,1-9.88q4.59-4.59,10.18-1.31a3.23,3.23,0,0,1,.27,2.16,2.93,2.93,0,0,1-2.56,1.56c-4-1.31-5.32.43-4.84,4.25A2.52,2.52,0,0,1,264.77,18.31Z"/><path class="cls-13" d="M271.87,9.82c-3.3-2.49-6.59-1.83-9.86,0-.07-1.59-.39-3.26,1.31-4.31a2.23,2.23,0,0,0,2.73,1.16c1.48-.65.22-1.8.14-2.73l7.07,1.57a3.18,3.18,0,0,1,1.12,2.61,3.93,3.93,0,0,1-.77,1.79A1.35,1.35,0,0,1,271.87,9.82Z"/><path class="cls-14" d="M260.44,19.69l-.18,5.68c-3-1.33-1.4-4.05-1.84-6.15Z"/><path class="cls-14" d="M261.75,34c.09,1.33.19,2.67.28,4-.23,1-.13,2.17-1.35,2.66C260.7,38.41,259.72,36,261.75,34Z"/><path class="cls-8" d="M273.34,8.34c0-.93,0-1.85-.08-2.78,2.4.92,4.75-2.55,7.16-.06,2.71,2.83,5.84,5.39,8,8.6a5.57,5.57,0,0,1-.83,7.06c-2.24-1.85-3-4.65-4.38-7a7.31,7.31,0,0,0-3-3c-1.27-.72-2.72-.57-4.08-.8A5.83,5.83,0,0,1,273.34,8.34Z"/><path class="cls-15" d="M284.67,12.63c.07,3.14,3.69,5.09,2.88,8.53l.06,1.48c.26,1.26-.48,1.79-1.53,2.09a5.36,5.36,0,0,1-5.61-4.32,10.1,10.1,0,0,0-4.09-5.49,2.69,2.69,0,0,1-.66-1.92,2.91,2.91,0,0,1,1.52-1.47C279.88,10.81,282.29,11.6,284.67,12.63Z"/><path class="cls-16" d="M286.18,24l1.43-1.36c2.13,1.27,4.47,2.45,2.75,5.62-1.86,4.23-3.69.8-5.54,0C283.71,26.32,284.88,25.14,286.18,24Z"/><path class="cls-17" d="M270.45,38.19c2-.77,3.15-3.15,5.67-2.86l1.49,1.49C275.68,39.71,273.43,40.85,270.45,38.19Z"/><path class="cls-18" d="M286.18,24c-.45,1.41-.91,2.82-1.36,4.23l-1.57,2.86c-.26.56-.63.62-1.1.24-2.75.23-4.17,2.46-6.06,4,0-3.65.05-7.31.08-11,0-2.11.09-4.25-2.81-4.57-1.33.52-1.7-.22-1.78-1.34,1.44-1.6,3.49-2.58,4.64-4.49,3.18.48,5.76,1.56,5.6,5.46C281.69,22.45,284.36,22.83,286.18,24Z"/><path class="cls-3" d="M282.15,31.33l1.1-.24c.05,1.57-.24,3.25,1.43,4.28-.06,1.54.24,3.2-1.39,4.23C281.43,37.05,281.89,34.18,282.15,31.33Z"/><path class="cls-19" d="M266.18,28.23c.05-.9.11-1.79.16-2.69,2,.7,5.13-2.29,6,2.25.67,3.7-2.23,3.44-4.05,4.39-1.14.59-2.68,1.89-3.74.29C263.28,30.62,266.14,29.88,266.18,28.23Z"/><path class="cls-20" d="M271.92,18.37l1.44,1.42c-.54,3.73-4.46.58-5.73,2.81,0-.49,0-1,0-1.46a3.33,3.33,0,0,1-.62-4,2.74,2.74,0,0,1,4.93,1.2Z"/><path class="cls-21" d="M267.61,16.88v4.26a2.58,2.58,0,0,1-2.84-2.83c0-.47,0-.93,0-1.4l.61-.57A2,2,0,0,1,267.61,16.88Z"/><path class="cls-22" d="M271.92,18.37l-1.46-1.47c.78-2.93-2.3-1.51-3.06-2.71-.53-1.59.52-2.3,1.64-3l2.79,0c2,0,3.06,1.59,4.4,2.71h0C278.7,19.25,274.53,18.05,271.92,18.37Z"/><path class="cls-21" d="M269,11.22,267.61,14c-.18,1.68-1.85,1.9-2.78,2.85l-.08.06c-1.48-.21-3-.59-2.14-2.56C263.79,11.5,265.88,10.18,269,11.22Z"/><path class="cls-18" d="M276.23,14c-2.13.18-3.46-.94-4.4-2.71,0-.48,0-1,0-1.44l1.36.11a3.14,3.14,0,0,1,2.9,2.71C276.17,13.07,276.21,13.52,276.23,14Z"/><path class="cls-23" d="M276.13,12.63l-2.9-2.71c0-.52.07-1.05.11-1.58a3,3,0,0,1,2.81,1.47c1.44,1,2.86-.31,4.29,0l4.23,2.86Z"/><path class="cls-24" d="M280.44,9.77c-1.41,1.79-2.84,1.86-4.29,0C277.58,9.41,279,7.5,280.44,9.77Z"/><path class="cls-25" d="M264.83,16.85A4.8,4.8,0,0,1,267.61,14c1.78.16,4.45-.57,2.85,2.9l-2.85,0Z"/><text class="cls-26" transform="translate(0 26.48)"><tspan class="cls-27">M</tspan><tspan x="13.47" y="0">ail</tspan></text><text class="cls-26" transform="translate(58.19 26.48)"><tspan class="cls-28">I</tspan><tspan x="4.14" y="0">mages</tspan></text></g></g></svg>